<?xml version="1.0" standalone="no"?>
<!DOCTYPE svg PUBLIC "-//W3C//DTD SVG 20010904//EN"
 "http://www.w3.org/TR/2001/REC-SVG-20010904/DTD/svg10.dtd">
<svg version="1.0" xmlns="http://www.w3.org/2000/svg"
 width="1080.000000pt" height="1080.000000pt" viewBox="0 0 1080.000000 1080.000000"
 preserveAspectRatio="xMidYMid meet">

<g transform="translate(0.000000,1080.000000) scale(0.100000,-0.100000)"
fill="#000000" stroke="none">
<path d="M3348 7655 c-3 -3 -31 -12 -63 -20 -75 -20 -126 -51 -198 -122 -61
-60 -127 -152 -127 -176 0 -7 -3 -17 -7 -21 -30 -29 -32 -140 -32 -1792 -1
-1177 2 -1688 10 -1730 12 -63 47 -149 76 -185 18 -22 30 -33 81 -77 32 -27
112 -66 167 -83 22 -6 51 -17 65 -23 17 -7 196 -12 553 -14 l527 -3 0 290 0
291 -322 0 c-379 0 -401 4 -473 82 -25 26 -45 56 -45 67 0 11 -4 23 -10 26 -7
4 -10 470 -10 1365 l0 1358 52 57 c28 31 69 66 92 78 l41 22 1730 0 c1668 0
1731 -1 1765 -19 19 -10 56 -40 82 -67 40 -41 47 -55 53 -101 3 -29 5 -651 3
-1383 l-3 -1330 -35 -52 c-24 -35 -51 -59 -85 -77 l-50 -26 -340 -3 -340 -2 0
-290 0 -290 415 -3 c469 -3 626 6 727 40 37 12 70 25 73 28 3 3 23 14 45 25
22 10 65 43 96 74 51 52 64 72 98 154 14 35 16 3547 2 3575 -5 9 -19 37 -30
62 -23 47 -55 90 -130 172 -42 47 -146 108 -182 108 -10 0 -21 5 -24 10 -6 10
-4237 15 -4247 5z"/>
<path d="M5178 6736 c54 -62 65 -98 66 -226 1 -124 -8 -166 -55 -267 -44 -94
-114 -180 -298 -368 -91 -94 -181 -190 -199 -213 -45 -57 -105 -176 -126 -247
-9 -33 -21 -74 -27 -91 -12 -41 -12 -321 1 -329 6 -3 10 -13 10 -22 0 -9 19
-55 42 -102 49 -98 164 -227 251 -283 29 -18 54 -36 55 -40 2 -5 8 -8 14 -8 5
0 24 -11 42 -25 18 -14 38 -25 44 -25 6 0 26 -8 44 -18 18 -10 67 -31 108 -46
41 -15 83 -31 92 -37 10 -5 27 -9 37 -9 11 0 23 -4 26 -10 8 -13 25 -13 25 1
0 19 -50 121 -78 157 -15 20 -55 64 -89 99 -60 62 -127 153 -149 203 -27 61
-33 77 -40 115 -10 52 -10 199 0 250 16 81 69 174 159 277 17 21 35 38 39 38
4 0 36 21 72 46 42 29 74 44 88 42 21 -3 23 -9 26 -83 1 -44 9 -94 17 -110 7
-17 18 -42 24 -57 9 -24 138 -138 156 -138 17 0 116 -95 149 -143 49 -71 68
-150 63 -262 -2 -49 -9 -106 -14 -127 -11 -39 -68 -138 -102 -177 -12 -13 -21
-28 -21 -32 0 -5 -19 -23 -42 -40 -24 -18 -34 -29 -23 -26 83 24 224 91 324
155 76 48 241 195 241 215 0 6 8 20 19 31 24 28 63 100 83 156 53 149 55 344
6 525 -19 71 -42 140 -50 150 -4 5 -8 15 -8 21 0 22 -58 137 -92 185 l-34 46
-12 -25 c-7 -14 -12 -32 -12 -40 0 -8 -17 -46 -37 -86 -58 -111 -229 -272
-265 -250 -11 7 -10 48 1 59 4 6 14 33 21 60 7 28 18 56 24 64 15 19 14 364
-1 416 -6 22 -17 67 -23 100 -14 68 -74 203 -125 279 -50 74 -136 156 -209
198 -72 42 -197 97 -239 105 l-32 6 33 -37z"/>
<path d="M4497 3983 c-4 -3 -7 -134 -7 -290 l0 -283 105 0 105 0 0 131 0 130
27 -3 c35 -4 44 -36 43 -148 -1 -47 -1 -91 -1 -97 1 -10 26 -13 91 -13 l90 0
0 123 c-1 130 -4 141 -52 166 -29 15 -28 31 1 31 35 0 51 32 51 101 0 84 -15
114 -67 139 -38 18 -63 20 -211 20 -93 0 -172 -3 -175 -7z m257 -105 c21 -30
20 -71 -2 -99 -32 -38 -52 -20 -52 49 0 32 3 62 7 65 12 13 32 7 47 -15z"/>
<path d="M5205 3978 c-2 -7 -6 -29 -9 -48 -3 -19 -9 -57 -15 -85 -5 -27 -17
-93 -26 -145 -9 -52 -21 -117 -27 -145 -5 -27 -12 -71 -15 -97 l-5 -48 106 0
106 0 0 49 c0 44 2 49 26 55 47 12 63 0 66 -52 l3 -47 104 -3 103 -3 -5 38
c-3 21 -10 58 -15 83 -6 25 -18 83 -27 130 -19 95 -28 140 -45 220 -6 30 -14
67 -17 83 l-5 27 -149 0 c-111 0 -151 -3 -154 -12z m180 -248 c4 -41 9 -83 11
-92 5 -15 -1 -18 -36 -18 -39 0 -42 2 -36 23 4 12 11 51 16 87 17 127 34 127
45 0z"/>
<path d="M5780 3700 l0 -290 85 0 85 0 1 158 c1 187 10 229 28 127 18 -101 31
-166 42 -201 5 -17 9 -42 9 -57 0 -27 1 -27 65 -27 73 0 66 -9 86 110 6 36 15
88 20 115 6 28 12 65 16 82 13 75 23 11 23 -143 l0 -164 85 0 85 0 0 290 0
290 -128 0 -129 0 -11 -37 c-6 -21 -14 -65 -17 -98 -9 -79 -14 -97 -28 -92
-11 3 -16 23 -32 117 -3 19 -11 52 -17 73 l-11 37 -129 0 -128 0 0 -290z"/>
</g>
</svg>
